<?xml version="1.0" encoding="UTF-8" standalone="no"?>
<!-- Created with Inkscape (http://www.inkscape.org/) -->

<svg
   width="8.4671803mm"
   height="8.4666662mm"
   viewBox="0 0 8.4671803 8.4666662"
   version="1.1"
   id="svg1590"
   xmlns="http://www.w3.org/2000/svg"
   xmlns:svg="http://www.w3.org/2000/svg">
  <defs
     id="defs1587" />
  <g
     id="layer1"
     transform="translate(-132.84333,-159.79034)">
    <g
       id="g58500"
       transform="translate(21.268303,147.80231)">
      <rect
         style="fill:#2f2f2f;fill-opacity:1;stroke-width:0.21975;stroke-linecap:round"
         id="rect64726"
         width="8.4666662"
         height="8.4666662"
         x="111.57515"
         y="11.988029" />
      <path
         id="path15794"
         style="fill:#292929;fill-opacity:1;stroke-width:0.181948;stroke-linecap:round"
         d="m 114.22124,13.310945 c -0.99674,0 -1.80469,0.779579 -1.85001,1.76475 -10e-4,0.02895 -0.002,0.05804 -0.002,0.08733 v 0.17725 h 0.002 c -10e-4,0.02895 -0.002,0.05804 -0.002,0.08733 v 0.177251 3.262333 0.843876 h -0.002 a 0.79374999,0.79374999 0 0 1 -0.7922,0.743624 h 8.46718 a 0.79374999,0.79374999 0 0 1 -0.7922,-0.743624 h -0.002 v -0.824756 c 6e-5,-0.0064 5.2e-4,-0.01271 5.1e-4,-0.01912 v -3.262333 -0.177251 c 0,-0.02929 -0.001,-0.05838 -0.003,-0.08733 h 0.003 v -0.17725 c 0,-0.02929 -0.001,-0.05838 -0.003,-0.08733 h 5.1e-4 c -0.0453,-0.98517 -0.85273,-1.76475 -1.8495,-1.76475 z" />
    </g>
  </g>
</svg>
